<svg xmlns="http://www.w3.org/2000/svg" data-name="Capa 1" viewBox="0 0 1887 1008.8">
  <path d="M1854 672v287H39V642a13 13 0 0 1 5-2c18 0 28 7 36 12 7 4 11 7 22 7s16-3 22-7c8-5 18-12 36-12s28 7 36 12c7 4 11 7 22 7s16-3 22-7c8-5 18-12 36-12s28 7 36 12c6 4 11 7 22 7s16-3 22-7c8-5 18-12 36-12s28 7 36 12c6 4 11 7 22 7s16-3 22-7c8-5 18-12 36-12s28 7 36 12c6 4 11 7 22 7s16-3 22-7c8-5 18-12 36-12s28 7 36 12c6 4 11 7 22 7s15-3 22-7c8-5 18-12 36-12s28 7 36 12c6 4 11 7 22 7s15-3 22-7c8-5 18-12 36-12s28 7 36 12c6 4 11 7 22 7s15-3 22-7c8-5 18-12 36-12s28 7 36 12c6 4 11 7 22 7s15-3 22-7c8-5 18-12 36-12s28 7 36 12c6 4 11 7 22 7s15-3 22-7c8-5 18-12 36-12s28 7 36 12c6 4 11 7 22 7s15-3 22-7c8-5 18-12 36-12s28 7 36 12c6 4 11 7 22 7 10 0 15-3 22-7 8-5 17-12 36-12s28 7 35 12c7 4 12 7 23 7 10 0 15-3 22-7 8-5 17-12 36-12 18 0 28 7 35 12 7 4 12 7 23 7 10 0 15-3 22-7 8-5 17-12 36-12 18 0 28 7 35 12 7 4 12 7 23 7 10 0 15-3 22-7 8-5 17-12 36-12s28 7 35 12c7 4 12 7 23 7a12 12 0 0 1 2 0Z" style="fill:#1d1d1b"/>
</svg>
